<?xml version="1.0" encoding="UTF-8"?>
<svg id="_圖層_2" data-name="圖層 2" xmlns="http://www.w3.org/2000/svg" viewBox="0 0 770.8 142.5">
  <defs>
    <style>
      .cls-1 {
        fill: #25885e;
      }

      .cls-2, .cls-3 {
        fill: #fff;
      }

      .cls-3 {
        stroke: #fff;
        stroke-linecap: round;
        stroke-linejoin: round;
      }
    </style>
  </defs>
  <g id="Design">
    <g>
      <g>
        <g>
          <g>
            <path class="cls-3" d="M201.5,49.2c0,.4-.4,3.2-1.1,8.5-.9,5.6-1.4,10-1.5,13.1-.5,10.7-1,20-1.5,28.1-.3,3.2-.4,5.4-.4,6.7.3.2.5.8.5,1.8s-.3,1.9-.8,2.8c-.5,1.1-1,1.6-1.5,1.6-1.7,0-2.6-1.1-2.6-3.4,0-2.5.2-7.5.6-15.1,0-.7.2-2.5.5-5.4.3-2.4.5-4.3.5-5.8,0-1.1,0-2.9-.1-5.5s-.1-4.4-.1-5.7c0-5,.9-12.5,2.7-22.4.3-1.3,1.3-2,3.2-2,1,.1,1.6.9,1.6,2.7h0Z"/>
            <path class="cls-3" d="M195.1,112.9c-1.1,0-3.7-.4-3.7-4.5,0-2.5.2-7.6.6-15.2,0-.7.2-2.5.5-5.4.3-2.4.5-4.3.5-5.7,0-1.1,0-2.8-.1-5.4-.1-2.5-.1-4.5-.1-5.7,0-5.1.9-12.7,2.7-22.6.2-1.1,1.1-2.9,4.3-2.9.8,0,2.8.3,2.8,3.6,0,.2,0,.6-1.2,8.7-.9,5.6-1.4,9.9-1.5,13-.5,10.6-1,20.1-1.5,28.1-.2,2.8-.4,4.9-.4,6.2.4.6.5,1.5.5,2.2,0,1.1-.3,2.3-.9,3.4-.3.5-1.1,2.2-2.5,2.2h0ZM199.8,47.7c-1.9,0-2.1.8-2.1,1.1-1.8,9.8-2.7,17.3-2.7,22.2,0,1.2,0,3.1.1,5.7s.1,4.4.1,5.5c0,1.5-.2,3.5-.5,6-.4,3.4-.5,4.7-.5,5.2-.4,7.6-.6,12.6-.6,15.1,0,2.2.8,2.3,1.4,2.3.1-.1.3-.3.6-1,.4-.8.7-1.6.7-2.4,0-.5-.1-.8-.1-.9l-.4-.3v-.6c0-1.3.1-3.5.4-6.8.5-8,1-17.5,1.5-28.1.2-3.2.7-7.6,1.6-13.2,1-6.7,1.1-8.1,1.1-8.4,0-1.4-.4-1.4-.6-1.4h0Z"/>
          </g>
          <g>
            <path class="cls-3" d="M299,53.2c0,.7-.9,2.5-2.7,5.4-2,2.8-5.3,7.8-9.9,14.9-3.1,4.7-5.9,10-8.3,16.1-2.7,6.6-4.5,12.5-5.1,17.7-.3,3.1-1.1,4.6-2.3,4.6-1.4,0-2-.6-2-1.6,0-12.4,7.9-30.7,23.6-54.9-9.3-2.3-18.4-4-27.3-5-2.9,3.9-5.3,7.9-7.3,11.9-1.2,2.3-2.3,3.5-3.2,3.5-1.2,0-1.8-.4-1.8-1.1,0-2,1.1-5.1,3.5-9.3,2.3-4.1,4.9-7.6,7.8-10.6.8-.8,1.6-1.2,2.4-1.2,1.2,0,1.8.6,1.8,1.6,0,.5-.2,1-.6,1.5,3.2.2,8.1.9,14.6,2,6.4,1.2,11.6,2.3,15.5,3.5.8.2,1.3.6,1.3,1h0Z"/>
            <path class="cls-3" d="M270.7,112.9c-2.9,0-3.1-2.1-3.1-2.7,0-12.3,7.7-30.6,22.9-54.2-8.5-2.1-16.9-3.6-25-4.6-2.7,3.7-5,7.5-6.8,11.2-1.5,2.8-2.8,4.1-4.2,4.1-2.7,0-2.9-1.7-2.9-2.2,0-2.2,1.2-5.5,3.6-9.8,2.4-4.2,5-7.8,8-10.8,1-1,2.1-1.5,3.2-1.5,1.8,0,2.9,1,2.9,2.7v.6c3.2.3,7.6.9,13.1,1.8,6.4,1.2,11.7,2.4,15.6,3.5,1.5.4,2.2,1.2,2.2,2.2,0,.7-.3,1.9-2.9,5.9-2,2.8-5.2,7.7-9.9,14.9-3,4.6-5.8,9.9-8.2,15.9-2.7,6.5-4.4,12.4-5.1,17.4-.2,1.5-.6,5.6-3.4,5.6h0ZM264.4,49.1l.6.1c8.9,1,18.1,2.7,27.5,5.1l1.5.4-.8,1.3c-15.5,23.9-23.4,42.2-23.4,54.3,0,.3,0,.5,1,.5.2,0,.9-.6,1.2-3.6.7-5.3,2.5-11.3,5.2-18,2.5-6.1,5.3-11.6,8.4-16.3,4.7-7.2,7.9-12.1,9.9-14.9,1.9-2.9,2.3-4.1,2.5-4.5-.1-.1-.3-.2-.6-.2-3.9-1.2-9.1-2.3-15.4-3.5-6.4-1.1-11.3-1.7-14.5-1.9l-2.1-.2,1.4-1.7c.3-.3.4-.6.4-.8,0-.4,0-.5-.7-.5-.5,0-1.1.3-1.6.9-2.8,2.9-5.4,6.4-7.7,10.4-2.2,3.9-3.3,6.8-3.3,8.7.1,0,.3.1.7.1,0,0,.8-.1,2.2-2.9,2-4,4.5-8.1,7.4-12.1l.2-.7h0Z"/>
          </g>
          <g>
            <path class="cls-3" d="M375.8,89.4c0,5.3-1.8,10.3-5.4,14.9-4,5-9,7.6-15,7.6-9.4,0-16.2-2.2-20.5-6.6-.9-.9-1.4-2-1.4-3.3,0-.8.6-1.2,1.9-1.2.4,0,1.6.8,3.6,2.5,3.3,2.7,8.7,4.1,16.2,4.1,4.7,0,8.5-1.8,11.5-5.4,3-3.5,4.5-8.2,4.5-14,0-2.5-1-4.6-3-6.2-1.8-1.5-4.5-2.3-8-2.3s-8.5,1.2-14.6,3.7c-1.2.6-1.9.9-2,.9-.4,0-.9-.3-1.3-1-.3-.6-.5-1.1-.5-1.4,0-1.4,2.3-2.7,6.8-3.9,4.5-1.1,9.2-3.8,14-8,5.2-4.7,7.8-8.9,7.8-12.8,0-1.3-1.1-2.6-3.2-3.9-2-1.3-4-2-6-2-8,0-14.4,2.8-19.2,8.5-1.4,1.6-2.5,2.4-3.3,2.4-1,0-1.5-.5-1.5-1.4,0-1.3.4-2.6,1.3-3.8,2-2.9,5.6-5.4,10.8-7.4,4.5-1.8,8.8-2.6,12.7-2.6,3.2,0,6.2.9,9,2.6,2.7,1.8,4.1,3.9,4.1,6.2,0,5.8-4.3,12.2-13,19.1,5.1.7,8.7,2.2,10.8,4.6,1.8,2.3,2.9,5.7,2.9,10.1h0Z"/>
            <path class="cls-3" d="M355.4,112.9c-9.7,0-16.8-2.3-21.3-6.9-1.1-1.1-1.7-2.5-1.7-4.1,0-.5.2-2.3,3-2.3.6,0,1.3.2,4.3,2.8,3.1,2.5,8.3,3.8,15.5,3.8,4.4,0,7.9-1.6,10.7-5,2.8-3.3,4.2-7.8,4.2-13.3,0-2.2-.8-3.9-2.6-5.4-1.6-1.3-4-2-7.2-2-3.4,0-8.2,1.2-14.2,3.6-1.9.9-2.2,1-2.5,1-.8,0-1.6-.5-2.2-1.5-.5-.8-.7-1.4-.7-2,0-2,2.4-3.6,7.6-5,4.4-1.1,8.9-3.7,13.5-7.8,4.9-4.4,7.5-8.4,7.5-12,0-.9-.9-1.9-2.7-3-1.8-1.2-3.6-1.8-5.5-1.8-7.6,0-13.8,2.7-18.4,8.2-1.6,1.9-3,2.8-4.2,2.8-1.6,0-2.6-1-2.6-2.5s.5-3,1.5-4.4c2.2-3.1,6-5.7,11.3-7.8,4.6-1.8,9-2.7,13.1-2.7,3.5,0,6.7.9,9.6,2.8,3.1,2,4.6,4.4,4.6,7.2,0,5.7-3.9,11.9-11.5,18.4,4.1.8,7.2,2.4,9,4.6,2.2,2.5,3.3,6.2,3.3,10.9,0,5.6-1.9,10.8-5.6,15.6-4.2,5.2-9.6,7.9-15.8,7.8h0ZM374.7,89.4c0-4.2-.9-7.3-2.8-9.4-1.9-2.2-5.3-3.6-10.1-4.2l-2.6-.3,2-1.6c8.3-6.7,12.5-12.8,12.5-18.3,0-2-1.2-3.7-3.6-5.3-2.5-1.6-5.4-2.4-8.4-2.4-3.8,0-7.9.9-12.3,2.6-4.9,1.9-8.4,4.3-10.3,7.1-.7,1.1-1.1,2.1-1.1,3.2v.3h0s.1.1.4.1c.1,0,.9-.1,2.5-2,5.1-5.9,11.8-8.9,20.1-8.9,2.3,0,4.5.7,6.6,2.2,2.5,1.5,3.7,3.1,3.7,4.8,0,4.2-2.7,8.7-8.2,13.6-4.9,4.3-9.8,7.1-14.5,8.2-5.9,1.6-6,2.9-6,2.9,0,0,0,.3.4.9.1.2.3.3.3.4.2-.1.7-.3,1.6-.7h.1c6.4-2.6,11.3-3.8,15-3.8s6.7.9,8.7,2.6c2.2,1.9,3.3,4.3,3.3,7.1,0,6.1-1.6,11-4.8,14.7-3.2,3.8-7.4,5.7-12.4,5.7-7.7,0-13.3-1.4-16.9-4.3-2.1-1.8-2.8-2.2-3-2.3-.4,0-.6.1-.7.1h0c0,1,.4,1.8,1.1,2.5,4,4.1,10.7,6.2,19.7,6.2,5.7,0,10.3-2.3,14.1-7.1,3.8-4.8,5.6-9.5,5.6-14.6"/>
          </g>
          <g>
            <path class="cls-3" d="M495.2,70.6h4.2c2.7.7,2,2.3-2,4.8-.2-.9-7.2-.1-21,2.5-9.3,1.8-23.2,3.3-41.7,4.4-2.5-.2-3.5-.8-3.2-1.9l-.3-.7c.3-1.2,1.1-2.1,2.3-2.5.9.4,4.7.3,11.2-.3,13.9,0,30.8-2.1,50.5-6.3h0Z"/>
            <path class="cls-3" d="M434.7,83.4h0c-2.2-.1-3.4-.6-4-1.4-.2-.3-.4-.8-.3-1.4l-.3-.7.1-.3c.4-1.6,1.5-2.7,3-3.3l.4-.2.4.2c.3.1,1.9.4,10.6-.4h.1c13.8,0,30.7-2.1,50.3-6.3h4.7c1.5.4,2.3,1.1,2.4,2.1.2,1.4-1.1,2.8-4.2,4.7l-1.4.8-.2-1c-1.2-.1-5.3.1-19.8,2.9-9.2,1.7-23.3,3.2-41.8,4.3h0ZM432.5,80.7c.2.1.7.4,2.1.4,18.3-1.1,32.3-2.6,41.5-4.3,16.5-3.1,20.1-3.1,21.3-2.8,1.9-1.2,2.4-1.9,2.5-2.1-.1-.1-.3-.2-.7-.3h-4c-19.7,4.2-36.7,6.3-50.6,6.3-7.4.8-10,.7-11.2.4-.6.3-1,.7-1.2,1.3l.2.7.1.4h0Z"/>
          </g>
          <g>
            <path class="cls-3" d="M570.6,79.6c1.2-.3,2,.3,2.4,1.8l.8,6.2c0,4-2.6,11.8-7.8,23.4h-.3l-1.7-1.6,1.7-5.7.5-.4,2.4-11.9c1.1-2.5,1.1-5.5,0-9l-.5-.8c.4-1.4,1.2-2,2.5-2h0ZM583.8,42.4l.8.2,3.2,2.9,1.3,2.5,7.6-1.3h1.4l1,.9c.7,1.1-2,2.6-8.1,4.4-.7,1-.9,2.4-.8,4.2l-2.2,4.6-.8.4-1.9,2.5v.7c1.1.3,5.3-.8,12.4-3.4l1.3.7v.7c.7,1.2-2.7,3.1-10,5.6l1.2,9.8c3.1-.2,7.2-1.8,12.4-4.8l1-1c2.1.2,3,.3,2.4.6,1.8,2.1-1.4,4.7-9.5,7.8l-6.2,3.5-.3,1.3-.8,8.1c-.2.7,2.8,2.1,8.8,4.3l28.2,8c3.4.8,7.7,1.4,13,1.8,1.1.1,1.8,0,2.2-.6h2.6c2.4,1.8,1.7,2.8-2,2.9l-1.7.2-1.5-.7-4.4.4-4.9-.4c-11-1.2-22.5-3.9-34.6-8.2l-4.1-1.9c-4.5-1.1-8.8-3.4-13.2-6.9v-1.6l.9-.9h1l.8-.2,6,2.7c1.4-.7,1.1-4.9-.9-12.8l-1-8.5-.5-.7-11.9,3.6h-.8l-1.3-1.4v-1.5c-.2-.6,2.1-1.5,6.9-2.7,5.7-3.4,8.9-8.1,9.5-14,.2-.8-1.4-.7-4.6.2-.9.6-3.1.9-6.4.9-.9,0-1.4-.8-1.4-2.5,0-.7.7-1.4,2.2-2.1l3.2.2,4.9-1.5c.2-.5-.6-1.6-2.4-3.3l-.3-2.7c.1-.5.9-.8,2.3-1h0ZM634.1,54.5l6.2.2c2.5.2,3.5.9,3.2,2.3,0,1.7-1.1,3.7-3.2,5.9l2.7,1.2c1.1,2.1-4.5,5.7-16.7,10.6l.3,10.5c.2,4.4,4.4,7.5,12.7,9.2l8.3-.7,1.5-.2,1.2-.2.8-.6.5.3c2.3-.2,3.1-3.8,2.4-10.6h.8c2,.4,2.8,3.6,2.2,9.4-2,3.4-5,4.9-9.1,4.6l-1,.2-1.2.2-8.6.8c-6.5-.4-10.9-2.7-13.2-7l-1.7-5.2-.5-3.4c-.3-.2-.3-2.9,0-8.3l.8-11.9-.3-2.9c0-.4,1.1-1.1,3.3-1.9.5-1.8,3.4-2.6,8.6-2.5h0ZM634.3,58.2l-7,.9c-.9,0-1,1.8-.5,5.5l-.3,4.4h.8c3.8-1.4,7.5-4.8,11.3-10.3,0-.4-1.2-.5-3.5-.4l-.8-.1h0Z"/>
            <path class="cls-3" d="M566.7,112.1h-1.4l-2.5-2.4,1.9-6.6.5-.4,2.4-11.8c1-2.2,1-4.9,0-8l-.7-1,.1-.5c.5-1.8,1.7-2.7,3.4-2.8.9-.2,2.8-.2,3.6,2.5v.2l.8,6.4c0,4.2-2.6,12-7.9,23.9l-.2.5h0ZM565.3,109l.2.2c4.7-10.6,7.1-17.9,7.2-21.6l-.8-6.1c-.3-1.1-.7-1-1.1-.9h-.3c-.5,0-1,.1-1.2.7l.3.4v.2c1.2,3.7,1.2,6.9,0,9.6l-2.5,12.2-.5.5-1.3,4.8h0ZM640.3,110.9l-1.6-.7-4.2.4-5-.4c-11-1.2-22.7-3.9-34.9-8.3h-.1l-4-1.8c-4.5-1.1-9.1-3.5-13.5-7.1l-.4-.3v-2.6l1.5-1.5h1.3l1-.3,5.6,2.5c.2-.8.3-3.5-1.6-11.2v-.1l-1-8-11.2,3.4h-1.4l-1.9-2.1v-1.9c0-.3,0-.6.2-.8.4-.6,1.2-1.4,7.4-3,5.2-3.1,8-7.2,8.8-12.4-.5.1-1.4.2-3,.7-.8.4-2.4,1-6.8,1-.9,0-2.5-.5-2.5-3.6,0-1.8,2.1-2.8,2.8-3.1l.2-.1,3.3.2,3.5-1.1c-.3-.4-.8-.9-1.7-1.8l-.3-.3-.3-3.2c0-1.7,2.2-1.9,3.2-2h.2l1.2.3,3.5,3.3,1,2,7-1.2h1.8l1.5,1.2.1.1c.3.5.3,1,.2,1.6-.4,1-1.7,2.3-8.4,4.3-.4.8-.5,1.8-.4,3.1v.3l-2.5,5.2-.9.5-.8,1.1c1.5-.3,4.5-1.2,10.2-3.2l.5-.2,2.3,1.2v1.1c.1.4.1.8,0,1.2-.4,1.1-2,2.6-9.9,5.3l.9,7.9c2.8-.4,6.4-1.9,10.8-4.5l1.3-1.2h.5c2.4.2,3.4.3,3.6,1.3v.2c.4.8.4,1.5.2,2-.6,2.2-3.8,4.3-10.5,6.9l-5.6,3.2-.2.8-.7,7.8c.4.4,2.1,1.3,8.1,3.4l28.2,8c3.3.8,7.6,1.4,12.7,1.7.9.1,1.2,0,1.2-.1l.3-.5h3.5l.3.2c.6.5,2.2,1.7,1.8,3.1-.5,1.4-2.5,1.7-4.4,1.8l-2,.3h0ZM639.8,108.3l.8.4,1.5-.2c1.2-.1,1.9-.2,2.2-.3-.1-.1-.3-.3-.5-.5h-1.7c-.6.4-1.3.6-2.3.6h0ZM595.5,99.9c12,4.2,23.5,7,34.3,8.1l4.8.4,3.2-.3c-4.5-.4-8.5-.9-11.6-1.7l-28.3-8c-9.2-3.2-9.9-4.3-9.6-5.5l.8-8.1.3-1.8,6.8-3.8c7.8-3,9.1-4.8,9.2-5.4,0-.1.1-.3-.2-.6h0c-.2,0-.6-.1-1.2-.1l-.9.8c-5.4,3.2-9.7,4.8-13,5l-1,.1-1.4-11.8.8-.3c7.4-2.5,9-3.8,9.3-4.2v-.4l-.3-.1c-9.4,3.3-11.7,3.5-12.6,3.3l-.8-.2v-1.9l2.3-3,.7-.4,1.9-4c-.1-1.9.2-3.4,1-4.6l.2-.3.4-.1c5-1.5,6.7-2.5,7.2-2.9l-.2-.2h-.9l-8.3,1.4-1.6-3.1-2.9-2.6-.3-.1c-.5.1-.8.1-1,.2l.2,1.8c2.1,2,2.8,3.2,2.4,4.1l-.2.5-5.6,1.8-3.1-.2c-1.2.6-1.3,1-1.3,1,0,1.2.3,1.4.3,1.4h0c4.1,0,5.5-.4,5.9-.7l.1-.1h.1c3.8-1.1,4.9-1,5.6-.3.4.3.5.8.4,1.3-.6,6.2-4,11.2-10,14.8l-.1.1h-.2c-4.3,1.1-5.7,1.7-6.1,2v.8l.7.8h.1l12.5-3.8,1.2,1.5,1,8.8c2.8,11.1,1.8,13.3.3,14l-.5.2-6.1-2.8-.5.1h-.7l-.2.2v.6c4.1,3.2,8.2,5.3,12.4,6.4l.2.1,4.1,1.8h0ZM637,98.8h0c-7-.4-11.7-2.9-14.2-7.6l-.1-.2-1.7-5.4-.5-3c-.4-.7-.5-2.6-.1-8.9l.8-11.8-.2-3c0-1,.9-1.7,3.6-2.7,1.3-2.7,6-2.8,9.5-2.8h0l6.2.2c2,.1,3.2.6,3.9,1.5.3.4.6,1.1.4,2.1,0,1.6-.9,3.4-2.5,5.4l1.7.8.2.3c.3.6.3,1.3.1,2-.6,1.7-3.1,4.3-16.6,9.9l.2,9.7c.2,3.8,4.1,6.5,11.7,8.1l8.2-.6,1.5-.2.9-.2,1.2-.8.8.5c.2-.1.3-.2.4-.3.5-.7,1.4-2.7.7-9l-.1-1.2h2.2c3.6.8,3.5,6.4,3,10.6v.2l-.1.2c-2.2,3.7-5.5,5.4-10,5.1l-2.2.4-8.9.7h0ZM624.8,90.3c2.1,3.9,6.1,6,12.2,6.3l8.5-.8,2.3-.5h.2c3.6.3,6.2-1,8-3.8.4-3.8.1-6.4-.6-7.5.3,4.6-.1,7.4-1.4,8.9-.6.7-1.3,1.1-2.2,1.2h-.4l-.2-.1-.4.3-1.4.3-1.6.2-8.6.7h-.2c-8.8-1.8-13.4-5.2-13.6-10.2l-.3-11.3.7-.3c13.3-5.4,15.7-7.9,16.1-8.8l-3.5-1.6,1.1-1.1c1.9-2,2.9-3.8,2.9-5.2v-.3c.1-.3,0-.3,0-.3,0-.1-.4-.5-2.2-.6l-6.1-.2c-6.3-.2-7.3,1.1-7.5,1.7l-.2.5-.5.2c-1.6.6-2.3.9-2.6,1.1l.2,2.6v.1l-.8,11.9c-.3,5-.3,6.8-.2,7.4l.1.1.6,3.9,1.6,5.2h0ZM627.5,70.1h-2.1l.3-5.4c-.6-4.2-.2-5.4.4-6,.3-.3.7-.6,1.2-.6l7.1-.9h.8c2.9-.1,3.7.1,4.2.6.3.2.4.6.4.9v.3l-.2.3c-3.9,5.6-7.8,9.2-11.8,10.7l-.3.1h0ZM627.7,60.2c-.1.4-.2,1.4.2,4.3v.1l-.2,3.1c3-1.3,6-4.1,9.1-8.3h-2.3l-6.8.8h0Z"/>
          </g>
          <g>
            <path class="cls-3" d="M748.6,32.1l9.1.2,5.9,1,1.2,1.1-2.4,1.9c-2.3-.3-4.7-.1-7,.7l1,2.6-10.9,18.6v2.2c2.1-1.3,7.4-2.4,15.8-3.2h1.2c4.6-.6,6.2,6.8,4.8,22.2-.7,8.3,0,19.5,1.9,33.6-1.5,2.1-2.3,2.8-2.7,2.1l-1.8.2c-.6.3-1.9-.6-3.8-2.6-4.3,1.3-9.4,2-15.3,2.2l-5.1.2c-1.6-.3-2.6-1.2-3-2.6v-.7l2.3-2c-2.3-.4-3.5-1.5-3.7-3.5v-5.5c2.1-9.2,3.2-20.5,3.2-33.8-.7,1.4-9.8,10.9-27.5,28.6l-1.5.7c-1.8-.8-.4-3.5,4.2-8.1l20-22.8c3.7-3.7,9.4-12.8,17.2-27.5l1-.8-6.2-1.1-.8-2.5c1.2-1.1,2.2-1.6,2.9-1.4h0ZM724.1,35.6h1.9c1.4-.4,2.4,2,3.2,7.3l3,5.8.8,2.2c-.7.9-1.5,1.3-2.4,1.2-2.8.3-5.6-4.6-8.3-14.7-.5-.3.1-.9,1.8-1.8h0ZM740.5,23.9h1.7c1.9-.2,2.5,4.2,1.8,13l-.3,2.8c.5,4.7-.9,8.9-4.1,12.4l-1.3.2-1-.9c1.5-4.9,2-11,1.5-18.4l-.3-7.6c.1-.6.7-1.1,2-1.5h0ZM757.4,61.1l-8.8,2.5c-3.2.3-4.5,1.8-3.6,4.6l-.8,10.9.5.4,13.2-4.5,3,.4.8,1.2c0,1.6-4.4,3.8-13.1,6.6-2.2.8-4,2-5.4,3.5l-1,5,.5.4c2,.1,5.8-.8,11.5-2.9l5.9-.8,1.3,1.2c.2,2.4-6.5,5.1-20.1,8-.9.5-1,4-.5,10.4l-1.2,1.1.6.8c4.6.4,10.6,0,18-1.2l5.8-1.6c-1.4-2.8-2-17.8-2-45l-1-1.1-3.6.1h0Z"/>
            <path class="cls-3" d="M766.7,116.4h-.1c-.2,0-.5-.1-.7-.2l-1.1.1c-1,.4-2.3-.4-4.4-2.5-4.2,1.2-9.2,1.9-14.9,2l-5.2.2h-.1c-2.1-.4-3.4-1.6-3.8-3.5v-1.4l1.2-1c-1.9-.9-2.5-2.5-2.6-3.9v-5.8c1.9-8.4,3-18.6,3.2-30.4-2.8,3.1-9.4,10-25.5,26.2l-.2.1-2.2.9-.4-.2c-.7-.3-1.2-.9-1.4-1.7-.2-1.2.2-3.1,5.3-8.2l20-22.8c3.5-3.5,9.2-12.5,16.7-26.7l-4.8-.8-.4-1.3c0,.4-.1.8-.1,1.3l-.2,2.8c.5,5-1,9.4-4.4,13.1l-.2.3-2.2.4-2-1.7.2-.7c1.5-4.7,2-10.8,1.5-18l-.3-7.6c0-1.2.9-2.1,2.7-2.7l.2-.1h1.8c.6,0,1.2.2,1.7.7.8.8,1.7,2.6,1.5,8.9,1.3-1.1,2.4-1.5,3.4-1.4l9.2.2,6.2,1,2.3,2.2-3.8,2.9-.5-.1c-1.8-.2-3.6-.1-5.5.3l.8,2-11,18.8v.2c2.8-1,7.6-1.9,14.6-2.6h1.2c1.4-.2,2.6.3,3.5,1.2,2.8,2.7,3.5,9.8,2.4,22.2-.7,8.2,0,19.4,1.9,33.3l.1.4-.2.4c-1.7,2.4-2.5,3.2-3.4,3.2h0ZM761,111.4l.5.5c1.7,1.8,2.5,2.2,2.8,2.3l2.7-.3c.2-.2.5-.6.9-1.2-1.9-13.9-2.5-25.1-1.9-33.4,1.3-14.2-.2-19-1.7-20.5-.5-.5-1.1-.7-1.8-.6h-1.2c-10.2,1-13.9,2.2-15.2,3l-1.7,1v-4.4l10.7-18.4-.8-2.2-1.8,1.4c-8,14.8-13.6,23.8-17.4,27.5l-20,22.7c-3.8,3.8-4.5,5.4-4.7,6l.5-.2c22.6-22.7,26.7-27.3,27.1-28.1l2.1-4v4.4c0,13.3-1.1,24.7-3.2,33.9v5.3c.1.8.4,1.7,1.8,2.2l.8-.8c-.7-9,.2-10.3,1.1-10.9l.2-.1h.2c15.8-3.4,18.7-5.7,19.2-6.5l-.5-.4-5.3.7c-5.9,2.2-9.8,3.1-11.9,3h-.4l-1.3-1.1,1.2-6,.2-.2c1.5-1.7,3.4-2.9,5.8-3.8,9.8-3.1,11.8-4.8,12.2-5.4l-.2-.3-2.2-.3-13.5,4.6-1.4-1.2.8-11.3c-.4-1.5-.3-2.8.3-3.8.8-1.1,2.1-1.8,4.1-2l8.9-2.5h4.1l1.7,1.8v.4c0,33.5,1,42.7,1.9,44.5l.6,1.2-7.2,2c-7.4,1.2-13.5,1.7-18.2,1.2h-.3l-1.4,1.2c.2.9.8,1.4,1.9,1.7l5-.2c5.8-.1,10.8-.9,15-2.1l.9-.3h0ZM741.8,109c4.3.2,9.7-.2,16.2-1.3l4.6-1.3c-.5-1.9-1-5.7-1.3-14.2-2.1,1.8-7.2,3.9-19.4,6.5-.2.5-.6,2.4,0,9.3v.5l-.4.4.3.1h0ZM744.2,87.3l-.8,3.9c1.5-.1,4.5-.7,10.4-2.9l.2-.1,6.4-.8.6.6c-.1-2.5-.1-5.4-.2-8.6-1.8,1.3-5.3,2.9-12,5-1.8.6-3.4,1.6-4.6,2.9h0ZM757.6,62.2l-8.9,2.5c-1.3.1-2.2.5-2.6,1-.3.5-.3,1.2,0,2.2l.1.2-.7,10.1,12.5-4.2,3,.4v-11.8l-.4-.4h-3ZM738.6,51.1h.5c2.9-3.2,4-6.9,3.6-11.2v-.1l.3-2.9c.8-10.8-.6-11.8-.6-11.8h-1.5c-.8.3-1,.5-1,.6l.2,7.5c.3,6.9-.1,13-1.5,17.9h0ZM747.3,35.1l6.5,1.2h0l1.1-.3c2.4-.7,4.8-1,7.1-.8l1-.8-5.5-.9-9.2-.2s-.4-.1-1.5.7l.5,1.1h0ZM730.9,53.2h-.4c-3.4.2-6.4-4.7-9.3-15.3-.2-.3-.2-.6-.2-.9.1-.8.8-1.4,2.6-2.4l.2-.1h2.1c.5-.1,1.1,0,1.5.3.9.6,2,1.9,2.9,7.8l2.9,5.8,1,2.7-.3.5c-1.1,1.3-2.2,1.7-3,1.6h0ZM730.5,51h.1c.3,0,.6,0,1-.3l-.5-1.5-3-5.9v-.2c-.8-5.3-1.7-6.3-1.8-6.4h-1.9c-.6.3-.9.6-1.1.7,3.5,12.6,6.1,13.7,7.1,13.6h.1Z"/>
          </g>
        </g>
        <g>
          <path class="cls-2" d="M42.1,0h58.3c23.2,0,42.1,18.8,42.1,42.1v58.3c0,23.2-18.8,42.1-42.1,42.1h-58.3C18.9,142.5,0,123.7,0,100.4v-58.3C0,18.8,18.9,0,42.1,0Z"/>
          <g>
            <g>
              <path class="cls-2" d="M55.5,84c-.6-.3-1.4-.4-2.6-.4l-5.8,1.3-9.7-42.2c-.8-3.5-3.7-3.2-4.6-3-.8.2-1.6.5-2.6,1.1l-7.9,4.1c-1.1.5-2.5,1.3-3,2.8-.3.9-.2,1.9.3,2.9.8,1.6,2.4,2.3,4.2,1.9.4-.1.8-.3,1.2-.4l5.3-2.7,8.6,37.5-5.3,1.2c-1.1.2-2,.8-2.6,1.6-.5.6-.7,1.4-.8,2.6v.3l.1.3c.2.9.8,1.5,1.6,2.1l.4.2c.6.3,1.4.4,2.6.4h.2l19.1-4.4c1.1-.2,2-.8,2.7-1.7.4-.5.6-1.2.8-2.1l.1-.4-.1-.4c-.4-1.2-1.1-2.1-2.2-2.6h0Z"/>
              <path class="cls-2" d="M75.3,32.4h0c-1.6-1.4-3.6-1.7-6.3-1.1l-22.1,5c-2.4.6-3.7,2.5-3.1,4.8.4,1.7,1.9,3.4,4.8,2.7l19.8-4.5-6.6,44.2c-.1,1,.1,2.1.7,2.9.4.6,1.6,1.9,4.1,1.3,1.6-.4,2.7-1.6,3-3.4l6.9-46.3c.5-2.5.1-4.4-1.2-5.6h0Z"/>
              <path class="cls-2" d="M110,48.7c-.5-.3-1.1-.6-1.7-.8,2.8-3.2,3.7-7.3,2.6-11.9-.9-4.1-3.1-7.1-6.3-9-3.2-1.8-6.9-2.3-10.8-1.4-5.7,1.3-9.8,4.5-11.7,9.2-.8,1.9-1,3.6-.3,5,.5,1,1.3,1.8,2.4,2.1.7.2,1.5.2,2.1.1,2-.5,2.8-2.3,3.2-3.4.1-.2.1-.4.2-.5,1.4-2.9,2.4-4.6,5.7-5,3.1-.4,6.9.9,7.8,4.7.5,2.2,0,4.1-1.5,6-1.8,2.1-3.8,3.4-5.8,3.9-1.1.2-1.9.8-2.5,1.7-.7,1-.5,2.1-.3,3,.2,1.1.9,2,1.9,2.5,1.1.6,2.3.3,2.7.3,3.6-.8,6.5-.7,8.6.2,2.1,1.1,3.5,3,4.3,5.8.5,2.2.5,4.2-.1,5.9-.8,2.5-3.8,4.3-6.3,4.8-.6.1-1.2.2-1.7.2-2.1.1-4.2-.6-5.9-1.9-1.4-1.1-2.3-2.7-3.3-4.5-.2-.3-.4-.7-.6-1-.3-.5-1.1-2-3-2.1-.4,0-.9,0-1.4.1-1.4.3-2.4,1.1-2.8,2.2-.4,1-.2,1.9-.1,2.3,2.1,8.5,11.4,14.1,20.5,12.2l.2-.1c4.6-1.1,8.9-4,11-7.8,1.9-3.3,2.3-7.3,1.2-12.3-1.3-5-4-8.6-8.3-10.5h0Z"/>
            </g>
            <g>
              <path class="cls-2" d="M53.3,106.1h0l-1.4.2h-.1c-6,2.2-11.2,3.7-15.5,4.3h0c-2.7.7-3.2.6-3.3.6h-.1l-.1.1c-.4.2-.7.6-.8,1.2v.1l.1.2c0,.2.1.4.2.4.2.2.6.3,1.3.3h0c5.7-1.2,10.1-2.3,12.9-3.3,4.4-1.5,5.7-1.8,6.1-1.8l.1.3.4-.3c.9-.7,1.2-1.2,1.1-1.7-.1-.3-.4-.5-.9-.6h0Z"/>
              <path class="cls-2" d="M64.7,108.1c-.4-.8-1-.7-1.2-.6-.5.1-.9.5-.9,1v.2l.3.3c.4.9.6,1.8.4,2.5l-.2,3.8-.1.1-.3,2.2.9.6.4-.1.1-.2c1.1-4,1.6-6.5,1.4-7.9l-.8-1.9h0Z"/>
              <path class="cls-2" d="M90.1,104.5l-.7.1.1.4c.5,1.9.3,2.6.2,2.9,0,.1-.1.1-.1.1l-.3-.1-.3.3-.3.1-.4.1-2.5.6c-2.5-.1-3.8-.8-4-2l-.5-3.1c4-2.4,4.6-3.3,4.8-3.9.1-.2,0-.4-.1-.6l-.1-.1-.6-.2c.4-.7.6-1.3.5-1.8,0-.3-.1-.5-.2-.6-.2-.2-.7-.3-1.3-.3l-1.9.2h0c-1.1.1-2.6.4-2.9,1.3-.8.4-1.1.7-1,1l.2.9.3,3.8c.2,2,.3,2.6.4,2.8l.3.9.8,1.6v.1c1,1.3,2.6,1.9,4.8,1.7h0l2.7-.6.7-.2c1.4-.1,2.4-.8,2.9-2.1v-.2c-.1-1.2-.3-3-1.5-3.1h0ZM80.8,100.4c-.2-.9-.3-1.2-.3-1.3l2.1-.6h.2c.2,0,.4-.1.5-.1-.8,1.4-1.6,2.5-2.5,3v-1h0Z"/>
              <path class="cls-2" d="M88,112.6l-.1-.1-1.1.2-.1.2s-.1.1-.4.1c-1.6.1-3,.1-4.1.1l-9.2-1.2c-2-.4-2.6-.6-2.7-.7l-.1-2.5v-.3l1.6-1.3c2-1.1,2.9-1.9,3-2.6,0-.2,0-.4-.2-.6v-.1c-.1-.3-.4-.3-1.2-.2h-.2l-.3.5c-1.3,1-2.3,1.7-3.2,1.9l-.7-2.4c2.4-1.2,2.8-1.8,2.8-2.1v-.4l-.1-.4-.8-.3-.1.1c-1.7.9-2.6,1.3-3.1,1.5l.2-.4.2-.2.5-1.7v-.1c-.1-.4-.1-.7,0-1,2-1,2.4-1.4,2.4-1.8,0-.2,0-.4-.1-.5h0l-.5-.3-.6.1-2.1.7-.4-.6-1.3-.9-.4-.1h-.1c-.3.1-1,.2-.9.8l.2,1,.1.1c.3.2.5.4.6.5l-1.1.5-1,.1-.1.1c-.2.1-.8.5-.8,1.1.1,1,.7,1.1.9,1,1.4-.2,1.9-.4,2.1-.6.5-.2.8-.3.9-.4,0,1.7-.7,3.1-2.2,4.3-1.9.8-2.1,1.1-2.2,1.3v.3l.1.6.7.6.4-.1,3.4-1.6.7,2.5h0c1,2.3,1.1,3.2,1,3.4l-1.9-.5-.3.1-.4.1-.4.6.1.8.1.1c1.6.9,3.1,1.4,4.6,1.6l1.3.4h0c4,.8,7.8,1.1,11.3,1l1.6-.1,1.3-.3.5.1.6-.2c.6-.1,1.2-.3,1.3-.8.8-.5.2-.9,0-1h0Z"/>
              <path class="cls-2" d="M104.1,95.7h.1c.3,0,.6-.2.9-.7l.1-.2-.4-.8-1.2-1.7c-.5-1.8-1-2.2-1.3-2.3-.2-.1-.3-.1-.5,0l-.6.1-.1.1c-.5.4-.7.6-.7.9,0,.1,0,.2.1.3,1.4,3.1,2.5,4.5,3.6,4.3h0Z"/>
              <path class="cls-2" d="M119.3,112.6c-1.2-4.3-2-7.8-2.1-10.4-.2-4-.8-6.1-1.8-6.9-.3-.2-.8-.3-1.2-.2l-.3.1h0c-2.2.5-3.6,1-4.5,1.5v-.1l2.6-6.4-.3-.6c.6-.2,1.1-.3,1.7-.4h.1l1.1-1.1-.8-.6h-2l-2.9.4c-.3,0-.6.2-1,.6-.2-2-.6-2.5-.9-2.7-.2-.1-.4-.2-.6-.1l-.6.1h-.1c-.5.3-.8.6-.7,1l.4,2.4c.5,2.2.6,4.2.4,5.7v.2l.7.4.7-.2.1-.1c.9-1.3,1.2-2.8.8-4.3l-.1-.9v-.4l.2.4,1.5.1c-1.7,4.8-3.1,7.9-4,9.2l-5.2,8.1c-1.4,1.8-1.4,2.5-1.3,2.8.1.2.3.4.5.5h.1l.6-.4v-.1c4.3-5.8,6.1-8.3,6.8-9.4.5,3.7.6,7,.4,9.7l.2,1.8h0c.1.4.4.9,1,1.1l-.3.4.1.4v.1c.2.6.7.9,1.4.9h0l1.6-.3c1.8-.3,3.3-.8,4.6-1.3.8.6,1.2.7,1.5.6l.4-.1h.2c.3,0,.5-.3.9-1l.1-.1v-.4h0ZM109.7,99.6c-.1-.3-.2-.5-.1-.7.1-.2.4-.3.8-.4l2.7-1.2.9-.1.1.1c.2,1.4.4,2.6.6,3.7h-1l-3.7,1.9-.3-3.3h0ZM114.9,102.5c.2,1,.3,1.9.4,2.7l-.2-.1-2,.6h-.1c-1.8,1-2.7,1.3-3.1,1.4l.1-1.2c.3-.5.8-.9,1.3-1.1,2-1.2,3.1-1.8,3.6-2.3h0ZM110.2,112.4c-.5-2.1-.5-2.8-.4-2.9,3.7-1.4,5.2-2.3,5.8-2.9.5,2.7.8,3.9,1.1,4.4l-1.4.6c-2,.6-3.7,1-5,1.1h-.1l.1-.1-.1-.2h0Z"/>
            </g>
          </g>
        </g>
      </g>
      <g>
        <g>
          <path class="cls-2" d="M201.5,49.2c0,.4-.4,3.2-1.1,8.5-.9,5.6-1.4,10-1.5,13.1-.5,10.7-1,20-1.5,28.1-.3,3.2-.4,5.4-.4,6.7.3.2.5.8.5,1.8s-.3,1.9-.8,2.8c-.5,1.1-1,1.6-1.5,1.6-1.7,0-2.6-1.1-2.6-3.4,0-2.5.2-7.5.6-15.1,0-.7.2-2.5.5-5.4.3-2.4.5-4.3.5-5.8,0-1.1,0-2.9-.1-5.5s-.1-4.4-.1-5.7c0-5,.9-12.5,2.7-22.4.3-1.3,1.3-2,3.2-2,1,.1,1.6.9,1.6,2.7h0Z"/>
          <path class="cls-2" d="M195.1,112.9c-1.1,0-3.7-.4-3.7-4.5,0-2.5.2-7.6.6-15.2,0-.7.2-2.5.5-5.4.3-2.4.5-4.3.5-5.7,0-1.1,0-2.8-.1-5.4-.1-2.5-.1-4.5-.1-5.7,0-5.1.9-12.7,2.7-22.6.2-1.1,1.1-2.9,4.3-2.9.8,0,2.8.3,2.8,3.6,0,.2,0,.6-1.2,8.7-.9,5.6-1.4,9.9-1.5,13-.5,10.6-1,20.1-1.5,28.1-.2,2.8-.4,4.9-.4,6.2.4.6.5,1.5.5,2.2,0,1.1-.3,2.3-.9,3.4-.3.5-1.1,2.2-2.5,2.2h0ZM199.8,47.7c-1.9,0-2.1.8-2.1,1.1-1.8,9.8-2.7,17.3-2.7,22.2,0,1.2,0,3.1.1,5.7s.1,4.4.1,5.5c0,1.5-.2,3.5-.5,6-.4,3.4-.5,4.7-.5,5.2-.4,7.6-.6,12.6-.6,15.1,0,2.2.8,2.3,1.4,2.3.1-.1.3-.3.6-1,.4-.8.7-1.6.7-2.4,0-.5-.1-.8-.1-.9l-.4-.3v-.6c0-1.3.1-3.5.4-6.8.5-8,1-17.5,1.5-28.1.2-3.2.7-7.6,1.6-13.2,1-6.7,1.1-8.1,1.1-8.4,0-1.4-.4-1.4-.6-1.4h0Z"/>
        </g>
        <g>
          <path class="cls-2" d="M299,53.2c0,.7-.9,2.5-2.7,5.4-2,2.8-5.3,7.8-9.9,14.9-3.1,4.7-5.9,10-8.3,16.1-2.7,6.6-4.5,12.5-5.1,17.7-.3,3.1-1.1,4.6-2.3,4.6-1.4,0-2-.6-2-1.6,0-12.4,7.9-30.7,23.6-54.9-9.3-2.3-18.4-4-27.3-5-2.9,3.9-5.3,7.9-7.3,11.9-1.2,2.3-2.3,3.5-3.2,3.5-1.2,0-1.8-.4-1.8-1.1,0-2,1.1-5.1,3.5-9.3,2.3-4.1,4.9-7.6,7.8-10.6.8-.8,1.6-1.2,2.4-1.2,1.2,0,1.8.6,1.8,1.6,0,.5-.2,1-.6,1.5,3.2.2,8.1.9,14.6,2,6.4,1.2,11.6,2.3,15.5,3.5.8.2,1.3.6,1.3,1h0Z"/>
          <path class="cls-2" d="M270.7,112.9c-2.9,0-3.1-2.1-3.1-2.7,0-12.3,7.7-30.6,22.9-54.2-8.5-2.1-16.9-3.6-25-4.6-2.7,3.7-5,7.5-6.8,11.2-1.5,2.8-2.8,4.1-4.2,4.1-2.7,0-2.9-1.7-2.9-2.2,0-2.2,1.2-5.5,3.6-9.8,2.4-4.2,5-7.8,8-10.8,1-1,2.1-1.5,3.2-1.5,1.8,0,2.9,1,2.9,2.7v.6c3.2.3,7.6.9,13.1,1.8,6.4,1.2,11.7,2.4,15.6,3.5,1.5.4,2.2,1.2,2.2,2.2,0,.7-.3,1.9-2.9,5.9-2,2.8-5.2,7.7-9.9,14.9-3,4.6-5.8,9.9-8.2,15.9-2.7,6.5-4.4,12.4-5.1,17.4-.2,1.5-.6,5.6-3.4,5.6h0ZM264.4,49.1l.6.1c8.9,1,18.1,2.7,27.5,5.1l1.5.4-.8,1.3c-15.5,23.9-23.4,42.2-23.4,54.3,0,.3,0,.5,1,.5.2,0,.9-.6,1.2-3.6.7-5.3,2.5-11.3,5.2-18,2.5-6.1,5.3-11.6,8.4-16.3,4.7-7.2,7.9-12.1,9.9-14.9,1.9-2.9,2.3-4.1,2.5-4.5-.1-.1-.3-.2-.6-.2-3.9-1.2-9.1-2.3-15.4-3.5-6.4-1.1-11.3-1.7-14.5-1.9l-2.1-.2,1.4-1.7c.3-.3.4-.6.4-.8,0-.4,0-.5-.7-.5-.5,0-1.1.3-1.6.9-2.8,2.9-5.4,6.4-7.7,10.4-2.2,3.9-3.3,6.8-3.3,8.7.1,0,.3.1.7.1,0,0,.8-.1,2.2-2.9,2-4,4.5-8.1,7.4-12.1l.2-.7h0Z"/>
        </g>
        <g>
          <path class="cls-2" d="M375.8,89.4c0,5.3-1.8,10.3-5.4,14.9-4,5-9,7.6-15,7.6-9.4,0-16.2-2.2-20.5-6.6-.9-.9-1.4-2-1.4-3.3,0-.8.6-1.2,1.9-1.2.4,0,1.6.8,3.6,2.5,3.3,2.7,8.7,4.1,16.2,4.1,4.7,0,8.5-1.8,11.5-5.4,3-3.5,4.5-8.2,4.5-14,0-2.5-1-4.6-3-6.2-1.8-1.5-4.5-2.3-8-2.3s-8.5,1.2-14.6,3.7c-1.2.6-1.9.9-2,.9-.4,0-.9-.3-1.3-1-.3-.6-.5-1.1-.5-1.4,0-1.4,2.3-2.7,6.8-3.9,4.5-1.1,9.2-3.8,14-8,5.2-4.7,7.8-8.9,7.8-12.8,0-1.3-1.1-2.6-3.2-3.9-2-1.3-4-2-6-2-8,0-14.4,2.8-19.2,8.5-1.4,1.6-2.5,2.4-3.3,2.4-1,0-1.5-.5-1.5-1.4,0-1.3.4-2.6,1.3-3.8,2-2.9,5.6-5.4,10.8-7.4,4.5-1.8,8.8-2.6,12.7-2.6,3.2,0,6.2.9,9,2.6,2.7,1.8,4.1,3.9,4.1,6.2,0,5.8-4.3,12.2-13,19.1,5.1.7,8.7,2.2,10.8,4.6,1.8,2.3,2.9,5.7,2.9,10.1h0Z"/>
          <path class="cls-2" d="M355.4,112.9c-9.7,0-16.8-2.3-21.3-6.9-1.1-1.1-1.7-2.5-1.7-4.1,0-.5.2-2.3,3-2.3.6,0,1.3.2,4.3,2.8,3.1,2.5,8.3,3.8,15.5,3.8,4.4,0,7.9-1.6,10.7-5,2.8-3.3,4.2-7.8,4.2-13.3,0-2.2-.8-3.9-2.6-5.4-1.6-1.3-4-2-7.2-2-3.4,0-8.2,1.2-14.2,3.6-1.9.9-2.2,1-2.5,1-.8,0-1.6-.5-2.2-1.5-.5-.8-.7-1.4-.7-2,0-2,2.4-3.6,7.6-5,4.4-1.1,8.9-3.7,13.5-7.8,4.9-4.4,7.5-8.4,7.5-12,0-.9-.9-1.9-2.7-3-1.8-1.2-3.6-1.8-5.5-1.8-7.6,0-13.8,2.7-18.4,8.2-1.6,1.9-3,2.8-4.2,2.8-1.6,0-2.6-1-2.6-2.5s.5-3,1.5-4.4c2.2-3.1,6-5.7,11.3-7.8,4.6-1.8,9-2.7,13.1-2.7,3.5,0,6.7.9,9.6,2.8,3.1,2,4.6,4.4,4.6,7.2,0,5.7-3.9,11.9-11.5,18.4,4.1.8,7.2,2.4,9,4.6,2.2,2.5,3.3,6.2,3.3,10.9,0,5.6-1.9,10.8-5.6,15.6-4.2,5.2-9.6,7.9-15.8,7.8h0ZM374.7,89.4c0-4.2-.9-7.3-2.8-9.4-1.9-2.2-5.3-3.6-10.1-4.2l-2.6-.3,2-1.6c8.3-6.7,12.5-12.8,12.5-18.3,0-2-1.2-3.7-3.6-5.3-2.5-1.6-5.4-2.4-8.4-2.4-3.8,0-7.9.9-12.3,2.6-4.9,1.9-8.4,4.3-10.3,7.1-.7,1.1-1.1,2.1-1.1,3.2v.3h0s.1.1.4.1c.1,0,.9-.1,2.5-2,5.1-5.9,11.8-8.9,20.1-8.9,2.3,0,4.5.7,6.6,2.2,2.5,1.5,3.7,3.1,3.7,4.8,0,4.2-2.7,8.7-8.2,13.6-4.9,4.3-9.8,7.1-14.5,8.2-5.9,1.6-6,2.9-6,2.9,0,0,0,.3.4.9.1.2.3.3.3.4.2-.1.7-.3,1.6-.7h.1c6.4-2.6,11.3-3.8,15-3.8s6.7.9,8.7,2.6c2.2,1.9,3.3,4.3,3.3,7.1,0,6.1-1.6,11-4.8,14.7-3.2,3.8-7.4,5.7-12.4,5.7-7.7,0-13.3-1.4-16.9-4.3-2.1-1.8-2.8-2.2-3-2.3-.4,0-.6.1-.7.1h0c0,1,.4,1.8,1.1,2.5,4,4.1,10.7,6.2,19.7,6.2,5.7,0,10.3-2.3,14.1-7.1,3.8-4.8,5.6-9.5,5.6-14.6"/>
        </g>
        <g>
          <path class="cls-2" d="M495.2,70.6h4.2c2.7.7,2,2.3-2,4.8-.2-.9-7.2-.1-21,2.5-9.3,1.8-23.2,3.3-41.7,4.4-2.5-.2-3.5-.8-3.2-1.9l-.3-.7c.3-1.2,1.1-2.1,2.3-2.5.9.4,4.7.3,11.2-.3,13.9,0,30.8-2.1,50.5-6.3h0Z"/>
          <path class="cls-2" d="M434.7,83.4h0c-2.2-.1-3.4-.6-4-1.4-.2-.3-.4-.8-.3-1.4l-.3-.7.1-.3c.4-1.6,1.5-2.7,3-3.3l.4-.2.4.2c.3.1,1.9.4,10.6-.4h.1c13.8,0,30.7-2.1,50.3-6.3h4.7c1.5.4,2.3,1.1,2.4,2.1.2,1.4-1.1,2.8-4.2,4.7l-1.4.8-.2-1c-1.2-.1-5.3.1-19.8,2.9-9.2,1.7-23.3,3.2-41.8,4.3h0ZM432.5,80.7c.2.1.7.4,2.1.4,18.3-1.1,32.3-2.6,41.5-4.3,16.5-3.1,20.1-3.1,21.3-2.8,1.9-1.2,2.4-1.9,2.5-2.1-.1-.1-.3-.2-.7-.3h-4c-19.7,4.2-36.7,6.3-50.6,6.3-7.4.8-10,.7-11.2.4-.6.3-1,.7-1.2,1.3l.2.7.1.4h0Z"/>
        </g>
        <g>
          <path class="cls-2" d="M570.6,79.6c1.2-.3,2,.3,2.4,1.8l.8,6.2c0,4-2.6,11.8-7.8,23.4h-.3l-1.7-1.6,1.7-5.7.5-.4,2.4-11.9c1.1-2.5,1.1-5.5,0-9l-.5-.8c.4-1.4,1.2-2,2.5-2h0ZM583.8,42.4l.8.2,3.2,2.9,1.3,2.5,7.6-1.3h1.4l1,.9c.7,1.1-2,2.6-8.1,4.4-.7,1-.9,2.4-.8,4.2l-2.2,4.6-.8.4-1.9,2.5v.7c1.1.3,5.3-.8,12.4-3.4l1.3.7v.7c.7,1.2-2.7,3.1-10,5.6l1.2,9.8c3.1-.2,7.2-1.8,12.4-4.8l1-1c2.1.2,3,.3,2.4.6,1.8,2.1-1.4,4.7-9.5,7.8l-6.2,3.5-.3,1.3-.8,8.1c-.2.7,2.8,2.1,8.8,4.3l28.2,8c3.4.8,7.7,1.4,13,1.8,1.1.1,1.8,0,2.2-.6h2.6c2.4,1.8,1.7,2.8-2,2.9l-1.7.2-1.5-.7-4.4.4-4.9-.4c-11-1.2-22.5-3.9-34.6-8.2l-4.1-1.9c-4.5-1.1-8.8-3.4-13.2-6.9v-1.6l.9-.9h1l.8-.2,6,2.7c1.4-.7,1.1-4.9-.9-12.8l-1-8.5-.5-.7-11.9,3.6h-.8l-1.3-1.4v-1.5c-.2-.6,2.1-1.5,6.9-2.7,5.7-3.4,8.9-8.1,9.5-14,.2-.8-1.4-.7-4.6.2-.9.6-3.1.9-6.4.9-.9,0-1.4-.8-1.4-2.5,0-.7.7-1.4,2.2-2.1l3.2.2,4.9-1.5c.2-.5-.6-1.6-2.4-3.3l-.3-2.7c.1-.5.9-.8,2.3-1h0ZM634.1,54.5l6.2.2c2.5.2,3.5.9,3.2,2.3,0,1.7-1.1,3.7-3.2,5.9l2.7,1.2c1.1,2.1-4.5,5.7-16.7,10.6l.3,10.5c.2,4.4,4.4,7.5,12.7,9.2l8.3-.7,1.5-.2,1.2-.2.8-.6.5.3c2.3-.2,3.1-3.8,2.4-10.6h.8c2,.4,2.8,3.6,2.2,9.4-2,3.4-5,4.9-9.1,4.6l-1,.2-1.2.2-8.6.8c-6.5-.4-10.9-2.7-13.2-7l-1.7-5.2-.5-3.4c-.3-.2-.3-2.9,0-8.3l.8-11.9-.3-2.9c0-.4,1.1-1.1,3.3-1.9.5-1.8,3.4-2.6,8.6-2.5h0ZM634.3,58.2l-7,.9c-.9,0-1,1.8-.5,5.5l-.3,4.4h.8c3.8-1.4,7.5-4.8,11.3-10.3,0-.4-1.2-.5-3.5-.4l-.8-.1h0Z"/>
          <path class="cls-2" d="M566.7,112.1h-1.4l-2.5-2.4,1.9-6.6.5-.4,2.4-11.8c1-2.2,1-4.9,0-8l-.7-1,.1-.5c.5-1.8,1.7-2.7,3.4-2.8.9-.2,2.8-.2,3.6,2.5v.2l.8,6.4c0,4.2-2.6,12-7.9,23.9l-.2.5h0ZM565.3,109l.2.2c4.7-10.6,7.1-17.9,7.2-21.6l-.8-6.1c-.3-1.1-.7-1-1.1-.9h-.3c-.5,0-1,.1-1.2.7l.3.4v.2c1.2,3.7,1.2,6.9,0,9.6l-2.5,12.2-.5.5-1.3,4.8h0ZM640.3,110.9l-1.6-.7-4.2.4-5-.4c-11-1.2-22.7-3.9-34.9-8.3h-.1l-4-1.8c-4.5-1.1-9.1-3.5-13.5-7.1l-.4-.3v-2.6l1.5-1.5h1.3l1-.3,5.6,2.5c.2-.8.3-3.5-1.6-11.2v-.1l-1-8-11.2,3.4h-1.4l-1.9-2.1v-1.9c0-.3,0-.6.2-.8.4-.6,1.2-1.4,7.4-3,5.2-3.1,8-7.2,8.8-12.4-.5.1-1.4.2-3,.7-.8.4-2.4,1-6.8,1-.9,0-2.5-.5-2.5-3.6,0-1.8,2.1-2.8,2.8-3.1l.2-.1,3.3.2,3.5-1.1c-.3-.4-.8-.9-1.7-1.8l-.3-.3-.3-3.2c0-1.7,2.2-1.9,3.2-2h.2l1.2.3,3.5,3.3,1,2,7-1.2h1.8l1.5,1.2.1.1c.3.5.3,1,.2,1.6-.4,1-1.7,2.3-8.4,4.3-.4.8-.5,1.8-.4,3.1v.3l-2.5,5.2-.9.5-.8,1.1c1.5-.3,4.5-1.2,10.2-3.2l.5-.2,2.3,1.2v1.1c.1.4.1.8,0,1.2-.4,1.1-2,2.6-9.9,5.3l.9,7.9c2.8-.4,6.4-1.9,10.8-4.5l1.3-1.2h.5c2.4.2,3.4.3,3.6,1.3v.2c.4.8.4,1.5.2,2-.6,2.2-3.8,4.3-10.5,6.9l-5.6,3.2-.2.8-.7,7.8c.4.4,2.1,1.3,8.1,3.4l28.2,8c3.3.8,7.6,1.4,12.7,1.7.9.1,1.2,0,1.2-.1l.3-.5h3.5l.3.2c.6.5,2.2,1.7,1.8,3.1-.5,1.4-2.5,1.7-4.4,1.8l-2,.3h0ZM639.8,108.3l.8.4,1.5-.2c1.2-.1,1.9-.2,2.2-.3-.1-.1-.3-.3-.5-.5h-1.7c-.6.4-1.3.6-2.3.6h0ZM595.5,99.9c12,4.2,23.5,7,34.3,8.1l4.8.4,3.2-.3c-4.5-.4-8.5-.9-11.6-1.7l-28.3-8c-9.2-3.2-9.9-4.3-9.6-5.5l.8-8.1.3-1.8,6.8-3.8c7.8-3,9.1-4.8,9.2-5.4,0-.1.1-.3-.2-.6h0c-.2,0-.6-.1-1.2-.1l-.9.8c-5.4,3.2-9.7,4.8-13,5l-1,.1-1.4-11.8.8-.3c7.4-2.5,9-3.8,9.3-4.2v-.4l-.3-.1c-9.4,3.3-11.7,3.5-12.6,3.3l-.8-.2v-1.9l2.3-3,.7-.4,1.9-4c-.1-1.9.2-3.4,1-4.6l.2-.3.4-.1c5-1.5,6.7-2.5,7.2-2.9l-.2-.2h-.9l-8.3,1.4-1.6-3.1-2.9-2.6-.3-.1c-.5.1-.8.1-1,.2l.2,1.8c2.1,2,2.8,3.2,2.4,4.1l-.2.5-5.6,1.8-3.1-.2c-1.2.6-1.3,1-1.3,1,0,1.2.3,1.4.3,1.4h0c4.1,0,5.5-.4,5.9-.7l.1-.1h.1c3.8-1.1,4.9-1,5.6-.3.4.3.5.8.4,1.3-.6,6.2-4,11.2-10,14.8l-.1.1h-.2c-4.3,1.1-5.7,1.7-6.1,2v.8l.7.8h.1l12.5-3.8,1.2,1.5,1,8.8c2.8,11.1,1.8,13.3.3,14l-.5.2-6.1-2.8-.5.1h-.7l-.2.2v.6c4.1,3.2,8.2,5.3,12.4,6.4l.2.1,4.1,1.8h0ZM637,98.8h0c-7-.4-11.7-2.9-14.2-7.6l-.1-.2-1.7-5.4-.5-3c-.4-.7-.5-2.6-.1-8.9l.8-11.8-.2-3c0-1,.9-1.7,3.6-2.7,1.3-2.7,6-2.8,9.5-2.8h0l6.2.2c2,.1,3.2.6,3.9,1.5.3.4.6,1.1.4,2.1,0,1.6-.9,3.4-2.5,5.4l1.7.8.2.3c.3.6.3,1.3.1,2-.6,1.7-3.1,4.3-16.6,9.9l.2,9.7c.2,3.8,4.1,6.5,11.7,8.1l8.2-.6,1.5-.2.9-.2,1.2-.8.8.5c.2-.1.3-.2.4-.3.5-.7,1.4-2.7.7-9l-.1-1.2h2.2c3.6.8,3.5,6.4,3,10.6v.2l-.1.2c-2.2,3.7-5.5,5.4-10,5.1l-2.2.4-8.9.7h0ZM624.8,90.3c2.1,3.9,6.1,6,12.2,6.3l8.5-.8,2.3-.5h.2c3.6.3,6.2-1,8-3.8.4-3.8.1-6.4-.6-7.5.3,4.6-.1,7.4-1.4,8.9-.6.7-1.3,1.1-2.2,1.2h-.4l-.2-.1-.4.3-1.4.3-1.6.2-8.6.7h-.2c-8.8-1.8-13.4-5.2-13.6-10.2l-.3-11.3.7-.3c13.3-5.4,15.7-7.9,16.1-8.8l-3.5-1.6,1.1-1.1c1.9-2,2.9-3.8,2.9-5.2v-.3c.1-.3,0-.3,0-.3,0-.1-.4-.5-2.2-.6l-6.1-.2c-6.3-.2-7.3,1.1-7.5,1.7l-.2.5-.5.2c-1.6.6-2.3.9-2.6,1.1l.2,2.6v.1l-.8,11.9c-.3,5-.3,6.8-.2,7.4l.1.1.6,3.9,1.6,5.2h0ZM627.5,70.1h-2.1l.3-5.4c-.6-4.2-.2-5.4.4-6,.3-.3.7-.6,1.2-.6l7.1-.9h.8c2.9-.1,3.7.1,4.2.6.3.2.4.6.4.9v.3l-.2.3c-3.9,5.6-7.8,9.2-11.8,10.7l-.3.1h0ZM627.7,60.2c-.1.4-.2,1.4.2,4.3v.1l-.2,3.1c3-1.3,6-4.1,9.1-8.3h-2.3l-6.8.8h0Z"/>
        </g>
        <g>
          <path class="cls-2" d="M748.6,32.1l9.1.2,5.9,1,1.2,1.1-2.4,1.9c-2.3-.3-4.7-.1-7,.7l1,2.6-10.9,18.6v2.2c2.1-1.3,7.4-2.4,15.8-3.2h1.2c4.6-.6,6.2,6.8,4.8,22.2-.7,8.3,0,19.5,1.9,33.6-1.5,2.1-2.3,2.8-2.7,2.1l-1.8.2c-.6.3-1.9-.6-3.8-2.6-4.3,1.3-9.4,2-15.3,2.2l-5.1.2c-1.6-.3-2.6-1.2-3-2.6v-.7l2.3-2c-2.3-.4-3.5-1.5-3.7-3.5v-5.5c2.1-9.2,3.2-20.5,3.2-33.8-.7,1.4-9.8,10.9-27.5,28.6l-1.5.7c-1.8-.8-.4-3.5,4.2-8.1l20-22.8c3.7-3.7,9.4-12.8,17.2-27.5l1-.8-6.2-1.1-.8-2.5c1.2-1.1,2.2-1.6,2.9-1.4h0ZM724.1,35.6h1.9c1.4-.4,2.4,2,3.2,7.3l3,5.8.8,2.2c-.7.9-1.5,1.3-2.4,1.2-2.8.3-5.6-4.6-8.3-14.7-.5-.3.1-.9,1.8-1.8h0ZM740.5,23.9h1.7c1.9-.2,2.5,4.2,1.8,13l-.3,2.8c.5,4.7-.9,8.9-4.1,12.4l-1.3.2-1-.9c1.5-4.9,2-11,1.5-18.4l-.3-7.6c.1-.6.7-1.1,2-1.5h0ZM757.4,61.1l-8.8,2.5c-3.2.3-4.5,1.8-3.6,4.6l-.8,10.9.5.4,13.2-4.5,3,.4.8,1.2c0,1.6-4.4,3.8-13.1,6.6-2.2.8-4,2-5.4,3.5l-1,5,.5.4c2,.1,5.8-.8,11.5-2.9l5.9-.8,1.3,1.2c.2,2.4-6.5,5.1-20.1,8-.9.5-1,4-.5,10.4l-1.2,1.1.6.8c4.6.4,10.6,0,18-1.2l5.8-1.6c-1.4-2.8-2-17.8-2-45l-1-1.1-3.6.1h0Z"/>
          <path class="cls-2" d="M766.7,116.4h-.1c-.2,0-.5-.1-.7-.2l-1.1.1c-1,.4-2.3-.4-4.4-2.5-4.2,1.2-9.2,1.9-14.9,2l-5.2.2h-.1c-2.1-.4-3.4-1.6-3.8-3.5v-1.4l1.2-1c-1.9-.9-2.5-2.5-2.6-3.9v-5.8c1.9-8.4,3-18.6,3.2-30.4-2.8,3.1-9.4,10-25.5,26.2l-.2.1-2.2.9-.4-.2c-.7-.3-1.2-.9-1.4-1.7-.2-1.2.2-3.1,5.3-8.2l20-22.8c3.5-3.5,9.2-12.5,16.7-26.7l-4.8-.8-.4-1.3c0,.4-.1.8-.1,1.3l-.2,2.8c.5,5-1,9.4-4.4,13.1l-.2.3-2.2.4-2-1.7.2-.7c1.5-4.7,2-10.8,1.5-18l-.3-7.6c0-1.2.9-2.1,2.7-2.7l.2-.1h1.8c.6,0,1.2.2,1.7.7.8.8,1.7,2.6,1.5,8.9,1.3-1.1,2.4-1.5,3.4-1.4l9.2.2,6.2,1,2.3,2.2-3.8,2.9-.5-.1c-1.8-.2-3.6-.1-5.5.3l.8,2-11,18.8v.2c2.8-1,7.6-1.9,14.6-2.6h1.2c1.4-.2,2.6.3,3.5,1.2,2.8,2.7,3.5,9.8,2.4,22.2-.7,8.2,0,19.4,1.9,33.3l.1.4-.2.4c-1.7,2.4-2.5,3.2-3.4,3.2h0ZM761,111.4l.5.5c1.7,1.8,2.5,2.2,2.8,2.3l2.7-.3c.2-.2.5-.6.9-1.2-1.9-13.9-2.5-25.1-1.9-33.4,1.3-14.2-.2-19-1.7-20.5-.5-.5-1.1-.7-1.8-.6h-1.2c-10.2,1-13.9,2.2-15.2,3l-1.7,1v-4.4l10.7-18.4-.8-2.2-1.8,1.4c-8,14.8-13.6,23.8-17.4,27.5l-20,22.7c-3.8,3.8-4.5,5.4-4.7,6l.5-.2c22.6-22.7,26.7-27.3,27.1-28.1l2.1-4v4.4c0,13.3-1.1,24.7-3.2,33.9v5.3c.1.8.4,1.7,1.8,2.2l.8-.8c-.7-9,.2-10.3,1.1-10.9l.2-.1h.2c15.8-3.4,18.7-5.7,19.2-6.5l-.5-.4-5.3.7c-5.9,2.2-9.8,3.1-11.9,3h-.4l-1.3-1.1,1.2-6,.2-.2c1.5-1.7,3.4-2.9,5.8-3.8,9.8-3.1,11.8-4.8,12.2-5.4l-.2-.3-2.2-.3-13.5,4.6-1.4-1.2.8-11.3c-.4-1.5-.3-2.8.3-3.8.8-1.1,2.1-1.8,4.1-2l8.9-2.5h4.1l1.7,1.8v.4c0,33.5,1,42.7,1.9,44.5l.6,1.2-7.2,2c-7.4,1.2-13.5,1.7-18.2,1.2h-.3l-1.4,1.2c.2.9.8,1.4,1.9,1.7l5-.2c5.8-.1,10.8-.9,15-2.1l.9-.3h0ZM741.8,109c4.3.2,9.7-.2,16.2-1.3l4.6-1.3c-.5-1.9-1-5.7-1.3-14.2-2.1,1.8-7.2,3.9-19.4,6.5-.2.5-.6,2.4,0,9.3v.5l-.4.4.3.1h0ZM744.2,87.3l-.8,3.9c1.5-.1,4.5-.7,10.4-2.9l.2-.1,6.4-.8.6.6c-.1-2.5-.1-5.4-.2-8.6-1.8,1.3-5.3,2.9-12,5-1.8.6-3.4,1.6-4.6,2.9h0ZM757.6,62.2l-8.9,2.5c-1.3.1-2.2.5-2.6,1-.3.5-.3,1.2,0,2.2l.1.2-.7,10.1,12.5-4.2,3,.4v-11.8l-.4-.4h-3ZM738.6,51.1h.5c2.9-3.2,4-6.9,3.6-11.2v-.1l.3-2.9c.8-10.8-.6-11.8-.6-11.8h-1.5c-.8.3-1,.5-1,.6l.2,7.5c.3,6.9-.1,13-1.5,17.9h0ZM747.3,35.1l6.5,1.2h0l1.1-.3c2.4-.7,4.8-1,7.1-.8l1-.8-5.5-.9-9.2-.2s-.4-.1-1.5.7l.5,1.1h0ZM730.9,53.2h-.4c-3.4.2-6.4-4.7-9.3-15.3-.2-.3-.2-.6-.2-.9.1-.8.8-1.4,2.6-2.4l.2-.1h2.1c.5-.1,1.1,0,1.5.3.9.6,2,1.9,2.9,7.8l2.9,5.8,1,2.7-.3.5c-1.1,1.3-2.2,1.7-3,1.6h0ZM730.5,51h.1c.3,0,.6,0,1-.3l-.5-1.5-3-5.9v-.2c-.8-5.3-1.7-6.3-1.8-6.4h-1.9c-.6.3-.9.6-1.1.7,3.5,12.6,6.1,13.7,7.1,13.6h.1Z"/>
        </g>
      </g>
      <g>
        <path class="cls-2" d="M42.1,0h58.3c23.2,0,42.1,18.8,42.1,42.1v58.3c0,23.2-18.8,42.1-42.1,42.1h-58.3C18.9,142.5,0,123.7,0,100.4v-58.3C0,18.8,18.9,0,42.1,0Z"/>
        <g>
          <g>
            <path class="cls-1" d="M55.5,84c-.6-.3-1.4-.4-2.6-.4l-5.8,1.3-9.7-42.2c-.8-3.5-3.7-3.2-4.6-3-.8.2-1.6.5-2.6,1.1l-7.9,4.1c-1.1.5-2.5,1.3-3,2.8-.3.9-.2,1.9.3,2.9.8,1.6,2.4,2.3,4.2,1.9.4-.1.8-.3,1.2-.4l5.3-2.7,8.6,37.5-5.3,1.2c-1.1.2-2,.8-2.6,1.6-.5.6-.7,1.4-.8,2.6v.3l.1.3c.2.9.8,1.5,1.6,2.1l.4.2c.6.3,1.4.4,2.6.4h.2l19.1-4.4c1.1-.2,2-.8,2.7-1.7.4-.5.6-1.2.8-2.1l.1-.4-.1-.4c-.4-1.2-1.1-2.1-2.2-2.6h0Z"/>
            <path class="cls-1" d="M75.3,32.4h0c-1.6-1.4-3.6-1.7-6.3-1.1l-22.1,5c-2.4.6-3.7,2.5-3.1,4.8.4,1.7,1.9,3.4,4.8,2.7l19.8-4.5-6.6,44.2c-.1,1,.1,2.1.7,2.9.4.6,1.6,1.9,4.1,1.3,1.6-.4,2.7-1.6,3-3.4l6.9-46.3c.5-2.5.1-4.4-1.2-5.6h0Z"/>
            <path class="cls-1" d="M110,48.7c-.5-.3-1.1-.6-1.7-.8,2.8-3.2,3.7-7.3,2.6-11.9-.9-4.1-3.1-7.1-6.3-9-3.2-1.8-6.9-2.3-10.8-1.4-5.7,1.3-9.8,4.5-11.7,9.2-.8,1.9-1,3.6-.3,5,.5,1,1.3,1.8,2.4,2.1.7.2,1.5.2,2.1.1,2-.5,2.8-2.3,3.2-3.4.1-.2.1-.4.2-.5,1.4-2.9,2.4-4.6,5.7-5,3.1-.4,6.9.9,7.8,4.7.5,2.2,0,4.1-1.5,6-1.8,2.1-3.8,3.4-5.8,3.9-1.1.2-1.9.8-2.5,1.7-.7,1-.5,2.1-.3,3,.2,1.1.9,2,1.9,2.5,1.1.6,2.3.3,2.7.3,3.6-.8,6.5-.7,8.6.2,2.1,1.1,3.5,3,4.3,5.8.5,2.2.5,4.2-.1,5.9-.8,2.5-3.8,4.3-6.3,4.8-.6.1-1.2.2-1.7.2-2.1.1-4.2-.6-5.9-1.9-1.4-1.1-2.3-2.7-3.3-4.5-.2-.3-.4-.7-.6-1-.3-.5-1.1-2-3-2.1-.4,0-.9,0-1.4.1-1.4.3-2.4,1.1-2.8,2.2-.4,1-.2,1.9-.1,2.3,2.1,8.5,11.4,14.1,20.5,12.2l.2-.1c4.6-1.1,8.9-4,11-7.8,1.9-3.3,2.3-7.3,1.2-12.3-1.3-5-4-8.6-8.3-10.5h0Z"/>
          </g>
          <g>
            <path class="cls-1" d="M53.3,106.1h0l-1.4.2h-.1c-6,2.2-11.2,3.7-15.5,4.3h0c-2.7.7-3.2.6-3.3.6h-.1l-.1.1c-.4.2-.7.6-.8,1.2v.1l.1.2c0,.2.1.4.2.4.2.2.6.3,1.3.3h0c5.7-1.2,10.1-2.3,12.9-3.3,4.4-1.5,5.7-1.8,6.1-1.8l.1.3.4-.3c.9-.7,1.2-1.2,1.1-1.7-.1-.3-.4-.5-.9-.6h0Z"/>
            <path class="cls-1" d="M64.7,108.1c-.4-.8-1-.7-1.2-.6-.5.1-.9.5-.9,1v.2l.3.3c.4.9.6,1.8.4,2.5l-.2,3.8-.1.1-.3,2.2.9.6.4-.1.1-.2c1.1-4,1.6-6.5,1.4-7.9l-.8-1.9h0Z"/>
            <path class="cls-1" d="M90.1,104.5l-.7.1.1.4c.5,1.9.3,2.6.2,2.9,0,.1-.1.1-.1.1l-.3-.1-.3.3-.3.1-.4.1-2.5.6c-2.5-.1-3.8-.8-4-2l-.5-3.1c4-2.4,4.6-3.3,4.8-3.9.1-.2,0-.4-.1-.6l-.1-.1-.6-.2c.4-.7.6-1.3.5-1.8,0-.3-.1-.5-.2-.6-.2-.2-.7-.3-1.3-.3l-1.9.2h0c-1.1.1-2.6.4-2.9,1.3-.8.4-1.1.7-1,1l.2.9.3,3.8c.2,2,.3,2.6.4,2.8l.3.9.8,1.6v.1c1,1.3,2.6,1.9,4.8,1.7h0l2.7-.6.7-.2c1.4-.1,2.4-.8,2.9-2.1v-.2c-.1-1.2-.3-3-1.5-3.1h0ZM80.8,100.4c-.2-.9-.3-1.2-.3-1.3l2.1-.6h.2c.2,0,.4-.1.5-.1-.8,1.4-1.6,2.5-2.5,3v-1h0Z"/>
            <path class="cls-1" d="M88,112.6l-.1-.1-1.1.2-.1.2s-.1.1-.4.1c-1.6.1-3,.1-4.1.1l-9.2-1.2c-2-.4-2.6-.6-2.7-.7l-.1-2.5v-.3l1.6-1.3c2-1.1,2.9-1.9,3-2.6,0-.2,0-.4-.2-.6v-.1c-.1-.3-.4-.3-1.2-.2h-.2l-.3.5c-1.3,1-2.3,1.7-3.2,1.9l-.7-2.4c2.4-1.2,2.8-1.8,2.8-2.1v-.4l-.1-.4-.8-.3-.1.1c-1.7.9-2.6,1.3-3.1,1.5l.2-.4.2-.2.5-1.7v-.1c-.1-.4-.1-.7,0-1,2-1,2.4-1.4,2.4-1.8,0-.2,0-.4-.1-.5h0l-.5-.3-.6.1-2.1.7-.4-.6-1.3-.9-.4-.1h-.1c-.3.1-1,.2-.9.8l.2,1,.1.1c.3.2.5.4.6.5l-1.1.5-1,.1-.1.1c-.2.1-.8.5-.8,1.1.1,1,.7,1.1.9,1,1.4-.2,1.9-.4,2.1-.6.5-.2.8-.3.9-.4,0,1.7-.7,3.1-2.2,4.3-1.9.8-2.1,1.1-2.2,1.3v.3l.1.6.7.6.4-.1,3.4-1.6.7,2.5h0c1,2.3,1.1,3.2,1,3.4l-1.9-.5-.3.1-.4.1-.4.6.1.8.1.1c1.6.9,3.1,1.4,4.6,1.6l1.3.4h0c4,.8,7.8,1.1,11.3,1l1.6-.1,1.3-.3.5.1.6-.2c.6-.1,1.2-.3,1.3-.8.8-.5.2-.9,0-1h0Z"/>
            <path class="cls-1" d="M104.1,95.7h.1c.3,0,.6-.2.9-.7l.1-.2-.4-.8-1.2-1.7c-.5-1.8-1-2.2-1.3-2.3-.2-.1-.3-.1-.5,0l-.6.1-.1.1c-.5.4-.7.6-.7.9,0,.1,0,.2.1.3,1.4,3.1,2.5,4.5,3.6,4.3h0Z"/>
            <path class="cls-1" d="M119.3,112.6c-1.2-4.3-2-7.8-2.1-10.4-.2-4-.8-6.1-1.8-6.9-.3-.2-.8-.3-1.2-.2l-.3.1h0c-2.2.5-3.6,1-4.5,1.5v-.1l2.6-6.4-.3-.6c.6-.2,1.1-.3,1.7-.4h.1l1.1-1.1-.8-.6h-2l-2.9.4c-.3,0-.6.2-1,.6-.2-2-.6-2.5-.9-2.7-.2-.1-.4-.2-.6-.1l-.6.1h-.1c-.5.3-.8.6-.7,1l.4,2.4c.5,2.2.6,4.2.4,5.7v.2l.7.4.7-.2.1-.1c.9-1.3,1.2-2.8.8-4.3l-.1-.9v-.4l.2.4,1.5.1c-1.7,4.8-3.1,7.9-4,9.2l-5.2,8.1c-1.4,1.8-1.4,2.5-1.3,2.8.1.2.3.4.5.5h.1l.6-.4v-.1c4.3-5.8,6.1-8.3,6.8-9.4.5,3.7.6,7,.4,9.7l.2,1.8h0c.1.4.4.9,1,1.1l-.3.4.1.4v.1c.2.6.7.9,1.4.9h0l1.6-.3c1.8-.3,3.3-.8,4.6-1.3.8.6,1.2.7,1.5.6l.4-.1h.2c.3,0,.5-.3.9-1l.1-.1v-.4h0ZM109.7,99.6c-.1-.3-.2-.5-.1-.7.1-.2.4-.3.8-.4l2.7-1.2.9-.1.1.1c.2,1.4.4,2.6.6,3.7h-1l-3.7,1.9-.3-3.3h0ZM114.9,102.5c.2,1,.3,1.9.4,2.7l-.2-.1-2,.6h-.1c-1.8,1-2.7,1.3-3.1,1.4l.1-1.2c.3-.5.8-.9,1.3-1.1,2-1.2,3.1-1.8,3.6-2.3h0ZM110.2,112.4c-.5-2.1-.5-2.8-.4-2.9,3.7-1.4,5.2-2.3,5.8-2.9.5,2.7.8,3.9,1.1,4.4l-1.4.6c-2,.6-3.7,1-5,1.1h-.1l.1-.1-.1-.2h0Z"/>
          </g>
        </g>
      </g>
    </g>
  </g>
</svg>